<svg width="186" height="198" viewBox="0 0 186 198" fill="none" xmlns="http://www.w3.org/2000/svg">
<path d="M61.1678 100.004L60.6118 99.0379V95.364L75.2203 70.0426C75.9854 69.076 76.9332 68.6752 77.6524 68.6752H85.1067H85.7588L72.2373 84.0043C68.7432 87.6401 69.2081 92.1112 70.3876 95.0597L70.4802 95.2914L70.5918 95.5147C71.1902 96.7113 72.0466 97.8341 73.1202 98.7609C72.0466 99.6877 71.1902 100.81 70.5918 102.007L70.4802 102.23L70.3876 102.462C69.2081 105.411 68.7432 109.882 72.2373 113.517L83.3678 126.136H77.6524C76.9897 126.136 76.0931 125.796 75.3338 124.626L61.1678 100.004ZM39.1548 98.7609C37.494 99.9358 36.2374 101.605 35.4877 103.479L35.4063 103.682L35.34 103.891L12.6484 175.353C12.26 176.539 12.0552 177.914 12.1628 179.313C12.2556 180.519 12.6392 182.376 14.0055 184.004C14.9533 185.263 16.1392 186.164 17.2488 186.761C18.4522 187.409 20.0198 187.944 21.7452 187.944H42.0751C44.3679 187.944 47.3971 187.139 49.4911 184.325L91.9803 136.103L92.0696 136.001L135.293 185.003C137.522 187.999 140.741 188.622 143.047 188.622H163.716C165.645 188.622 169.647 188.163 171.994 184.456C174.016 181.992 174.88 178.496 173.388 175.032L150.536 103.453C150.04 101.407 148.975 99.872 147.649 98.7609C148.974 97.6507 150.038 96.1175 150.535 94.0733L173.485 22.5229C173.807 21.551 174.121 20.3094 174.121 18.966C174.121 12.6703 168.756 8.89999 163.716 8.89999H143.047C140.741 8.89999 137.522 9.52307 135.293 12.5186L92.0784 61.5106L89.6076 58.7076L49.4906 13.1967C47.3967 10.3828 44.3677 9.57753 42.0751 9.57753H21.7452C20.0574 9.57753 18.5754 10.0935 17.579 10.5533C16.549 11.0287 15.4054 11.7378 14.4531 12.6902L14.033 13.1103L13.7034 13.6047C11.728 16.5678 11.9223 19.9486 12.648 22.1677L35.34 93.6306L35.4063 93.8395L35.4877 94.0431C36.2374 95.9173 37.494 97.586 39.1548 98.7609Z" fill="#2F2B55" stroke="#2F2B55" stroke-width="12" stroke-linecap="square"/>
<mask id="mask0_1_87" style="mask-type:alpha" maskUnits="userSpaceOnUse" x="18" y="14" width="151" height="169">
<path d="M77.6523 132.136C74.6029 132.136 71.8922 130.442 70.1981 127.731L55.9671 102.996H44.7857C43.0915 102.996 41.7362 104.013 41.0585 105.707L18.3568 177.201C18.018 178.217 18.018 179.573 18.6957 180.25C19.3733 181.267 20.7287 181.944 21.7452 181.944H42.075C43.0915 181.944 44.108 181.605 44.7857 180.589L87.4785 132.136H77.6523Z" fill="#2F2B55"/>
<path d="M144.741 105.029C144.402 103.335 142.708 102.319 140.675 102.319H79.6855C77.9914 102.319 76.636 103.335 75.9584 104.69C75.2807 106.385 75.2807 108.079 76.636 109.434L139.998 181.266C140.675 182.283 141.692 182.622 143.047 182.622H163.716C165.071 182.622 166.426 182.283 167.104 180.928C168.121 179.911 168.459 178.556 167.782 177.2L144.741 105.029Z" fill="#2F2B55"/>
<path d="M79.6855 95.2032H140.675C142.708 95.2032 144.402 94.1867 144.741 92.4925L167.782 20.6601C168.008 19.9825 168.121 19.4178 168.121 18.966C168.121 16.5942 166.088 14.9 163.716 14.9H143.047C141.692 14.9 140.675 15.2388 139.998 16.2553L76.636 88.0877C75.2807 89.4431 75.2807 91.1372 75.9584 92.8314C76.636 94.1867 77.9914 95.2032 79.6855 95.2032Z" fill="#2F2B55"/>
<path d="M44.7857 16.9329C44.108 15.9164 43.0915 15.5775 42.075 15.5775H21.7452C20.7287 15.5775 19.3733 16.2552 18.6957 16.9329C18.018 17.9494 18.018 19.3047 18.3568 20.3212L41.0585 91.8147C41.7362 93.5089 43.0915 94.5254 44.7857 94.5254H54.6118C54.6118 94.0736 54.7247 93.6218 54.9506 93.17L70.198 66.7411C71.8922 64.3693 74.6029 62.6752 77.6523 62.6752H85.1066L44.7857 16.9329Z" fill="#2F2B55"/>
</mask>
<g mask="url(#mask0_1_87)">
<path d="M102.363 -77.2622L130.113 -49.5122L-55.2566 135.858L-83.0066 108.108L102.363 -77.2622Z" fill="#E78284"/>
<path d="M130.113 -49.5122L157.863 -21.7621L-27.5066 163.608L-55.2566 135.858L130.113 -49.5122Z" fill="#EF9F76"/>
<path d="M185.613 5.98784L213.363 33.7378L27.9934 219.108L0.243416 191.358L185.613 5.98784Z" fill="#A6D189"/>
<path d="M213.363 33.7378L241.113 61.4878L55.7434 246.858L27.9934 219.108L213.363 33.7378Z" fill="#8CAAEE"/>
<path d="M240.768 61.1422L268.518 88.8922L83.1478 274.262L55.3978 246.512L240.768 61.1422Z" fill="#CA9EE6"/>
<path d="M157.863 -21.7621L185.613 5.98784L0.243416 191.358L-27.5066 163.608L157.863 -21.7621Z" fill="#E5C890"/>
</g>
</svg>
